<svg xmlns="http://www.w3.org/2000/svg" viewBox="0 0 230 220"><defs><style>.cls-1{fill:#fe060a;}.cls-2{fill:#fe0405;}.cls-3{fill:#fe0709;}.cls-4{fill:#fe3f42;}.cls-5{fill:#fe5c5e;}.cls-6{fill:#fe2528;}.cls-7{fill:#fe2023;}.cls-8{fill:#fe2427;}.cls-9{fill:#fefefe;}.cls-10{fill:#fe070b;}.cls-11{fill:#fe0001;}</style></defs><title>trx</title><g id="Capa_2" data-name="Capa 2"><g id="_Layer_" data-name="&lt;Layer&gt;"><path class="cls-1" d="M230,118v9c-2,4.13-1,8.77-2.36,13.08-9.2,30-27.78,52.28-55.14,67.26-8.44,4.62-17.09,9-27,9.95-2-.93-4.18.07-6.22-.54-.16-.05-.53-.13-.5-.09a1.19,1.19,0,0,1,.28,1.3c-1.43,1.63-3.3.86-5,1-4.81-.51-9.59,0-14.37.52-2.67.1-5.34,0-8,0-3.27-.42-6.56-1.35-9.7.52H99c-.64-.76-2.27-.27-2.3-1.75-.64-.16-.79.69-1.34.63-1.61,0-3.38.67-4.56-1.09,0-.63,0-1.23.9-1.07-1.06-.32-1.3.85-2,1.13-2.7,1-5.3.12-7.81-.65-39.71-12.28-66.56-37.76-79.28-77.62a34.3,34.3,0,0,1-1.34-13.3Q.78,110,1.23,93.75A43.2,43.2,0,0,1,4.45,74.24c14.3-37.09,40.9-60.73,78.88-71.83C89.1.73,95.24,1.74,101,0h7a35.08,35.08,0,0,0,13,0h8c3.29,1.47,6.85.75,10.26,1.23C159,4,175.9,12.81,191,25.21c17.24,14.14,29.57,31.72,36.12,53.24C229,84.57,228.36,90.93,230,97v5a7.89,7.89,0,0,0,0,6v4A7.89,7.89,0,0,0,230,118Z"/><path class="cls-2" d="M2,127c-1-1.16.22-3.45-2-4v-7a25.51,25.51,0,0,0,0-11V96c2.2,0,1.14-2.13,2-3,1.47,1.73,1.11,3.77.79,5.69a69.24,69.24,0,0,0,0,22.62C3.12,123.23,3.48,125.27,2,127Z"/><path class="cls-3" d="M134,218.09c-1.12,1.1-3.37-.18-4,1.91H120c-.66-.28-.68-.59,0-.92C124.59,217.94,129.19,216.44,134,218.09Z"/><path class="cls-3" d="M102,220c2.63-3.57,5.85-2,9-1-.44.79-1.51.35-2,1Z"/><path class="cls-4" d="M121,0a18.42,18.42,0,0,1-13,0Z"/><path class="cls-5" d="M0,105a13.2,13.2,0,0,1,0,11Z"/><path class="cls-6" d="M109,220l2-1,9,.12c0,.31,0,.61,0,.92Z"/><path class="cls-7" d="M230,108c-1.37-2-1.59-4,0-6Z"/><path class="cls-8" d="M230,118c-1.58-2-1.34-4,0-6Z"/><path class="cls-9" d="M56.65,51.21C67.8,53.14,78.79,55,89.77,56.94c20.49,3.61,41,7.31,61.45,10.87a15.64,15.64,0,0,1,8.38,4c6.47,6,13,12,19.56,17.83,3.58,3.18,2.44,5.87-.19,8.92q-32.43,37.64-64.74,75.36c-7.53,8.77-6.63,10.39-11.9-2C87.7,137.43,72.77,103.11,58,68.73c-1.7-4-3.39-8-4.77-12.06C52.18,53.63,53.13,51.41,56.65,51.21Z"/><path class="cls-3" d="M145,215.92a10.71,10.71,0,0,1-5.72,1.21,6.19,6.19,0,0,1-1.45-.24c-.6-.27-.49-.83.09-.79C140.28,216.26,142.59,213.91,145,215.92Z"/><path class="cls-3" d="M90.77,217.1l-.41.13L90,217c1-1,2.18-1.25,4.26-.43Z"/><path class="cls-3" d="M96.7,218.14l-.38.14-.33-.23c1-1.1,2.21-1.14,3.6-.34Z"/><path class="cls-1" d="M105.93,157.94,67.7,68.54c2.31-.39,3.14.8,4.11,1.59,12.94,10.48,25.83,21,38.8,31.45,1.84,1.48,2.9,2.85,2.58,5.41C111,124,109,141,107,158Z"/><path class="cls-1" d="M121,113c-.92-5.06,1.27-6.83,6.32-7.45,12.84-1.58,25.59-3.82,39.81-6L115.89,158.7l-.93-.4,5.91-43.57c1.21.93.33,2.33.72,3.45C121.1,116.49,122.08,114.62,121,113Z"/><path class="cls-1" d="M145,74.87c-9.14,7.36-17.36,13.8-25.34,20.52-2.47,2.08-3.76.61-5.44-.71C101,84.27,87.69,73.86,74.62,62.5Z"/><path class="cls-10" d="M168.78,91.38,130.48,98c-.48-2,1.07-2.42,2-3.15,6.08-4.89,12.31-9.59,18.27-14.62,2.27-1.92,3.65-1.85,5.74.19C160.13,84,164.1,87.25,168.78,91.38Z"/><path class="cls-11" d="M121,113c1.52,2,1,4.21.27,6.46-.14-1.58-.29-3.16-.43-4.73Z"/></g></g></svg>