<svg xmlns="http://www.w3.org/2000/svg" viewBox="0 0 218.47 220.16"><defs><style>.cls-1{fill:#fff;}.cls-2{fill:#2775c9;}.cls-3{fill:#1b6ec7;}.cls-4{fill:#2374c9;}.cls-5{fill:#136cc6;}.cls-6{fill:#126cc6;}.cls-7{fill:#1c71c8;}.cls-8{fill:#116cc6;}.cls-9{fill:#005bc0;}.cls-10{fill:#005cc0;}.cls-11{fill:#005ac0;}.cls-12{fill:#1d72c9;}.cls-13{fill:#0e69c4;}.cls-14{fill:#0363c3;}.cls-15{fill:#0061c2;}.cls-16{fill:#0365c4;}.cls-17{fill:#0f6ac5;}.cls-18{fill:#fe060a;}.cls-19{fill:#fe0405;}.cls-20{fill:#fe0709;}.cls-21{fill:#fe3f42;}.cls-22{fill:#fe5c5e;}.cls-23{fill:#fe2528;}.cls-24{fill:#fe2023;}.cls-25{fill:#fe2427;}.cls-26{fill:#fefefe;}.cls-27{fill:#fe070b;}.cls-28{fill:#fe0001;}</style></defs><title>usdctrc20</title><g id="Capa_2" data-name="Capa 2"><g id="_Layer_" data-name="&lt;Layer&gt;"><path class="cls-1" d="M218.19,116.83c.15,20.87-7.24,39.36-19,56.05-18.07,25.72-42.86,41.39-74,46q-45.12,6.66-81.85-21C19.72,180.11,6,156.66.79,127.81a31.56,31.56,0,0,1-.52-10.75,24.66,24.66,0,0,0,0-13.6c-.22-20.41,6.89-38.58,18.16-55C36.38,22.21,61.25,6.2,92.72,1.37c27.28-4.18,52.51,1.16,75.9,16.41,27.16,17.71,43.09,42.41,49,74a33.77,33.77,0,0,1,.63,11.43A24.66,24.66,0,0,0,218.19,116.83Z"/><path class="cls-2" d="M99,152.11c-10.25-2.06-16.47-9.06-21.46-17.57-1.43-2.24-.85-4.6-.34-6.94,4.25-3.51,8.92-3,13.7-1.47,2.91,5.12,3.75,11.91,10.93,13.58,4.89-.25,9.78.52,14.67-.09,3.14-.88,5.78-2.24,5.63-6.15a11.53,11.53,0,0,0-.06-10.91c-1.78-2.21-3.67-4.23-6.84-4.11-.49.41-.88.33-1.15-.25-5.67-1.28-11.33-2.58-17-3.85C86.4,112,81.87,107.6,80.3,98.16c-1.72-10.4,2-19.12,10.55-23.93,3.43-1.92,7.21-3.22,10.83-4.8-.43-4.05-1.53-8.13.64-12.05,4.37-1.67,8.75-2.15,13.14-.07,3.49,3.72,1.83,8,1.3,12.16,6.33,3.32,13.53,5.42,17.42,12.23,2.38,3.35,5.29,6.61,1.62,10.87l-.1.11c-4.09,3.1-8.19,3-12.3.06-1.68-8.27-8.08-10.57-15.13-11.2-5.51-.49-10.9.56-13,7,.72,2.71-.69,5.72,1.1,8.29,2.93,5.79,8.24,5.43,13.49,5.21,1.39,1.56,3.85-.39,5.11,1.57,1.7.49,3.4,1,5.11,1.44,9.51,2.45,17.45,6.65,19.51,17.45,1.29,2.6,1,5.24.2,7.89-2.23,11.71-10.21,17.84-20.75,21.49-3.84,3.47.2,8.73-2.81,12.38-.33.47-.65.94-1,1.4q-6.06,4.54-12.1,0l-.94-1.36c-2.12-1.78-.8-4.17-1-6.27S101.58,153.42,99,152.11Z"/><path class="cls-2" d="M64.07,60.34c-2.71,1.16-3.77,3.93-5.66,5.88A7.32,7.32,0,0,1,54.52,71c-6.4,7-9.23,15.69-12,24.43a10.14,10.14,0,0,1,.23,5.49c-.45,6.95-1.11,13.9-.2,20.87.68,1.69.11,3.62,1,5.28-.12,7.35,3.09,13.77,7.1,19.27,7.64,10.47,16.2,20.28,28.11,26.32,10.41,5.28,10.41,5.27,9.42,17.32-2.68,2.29-5.34,1.38-8,0-5.45-3-11-5.91-16.32-9.19-15.07-9.31-24.73-23-31.33-39.18-1-2.4-1-5.39-3.57-7-.95-3.53-2.31-7-1.59-10.78q0-12.22-.05-24.46c-.56-.87-.7-1.7.29-2.39,3.4-13.09,8-25.63,16.32-36.52C54,47.08,67.3,38.16,83.14,33c2.32-.76,5.28-.78,5.17,2.21-.15,4,3,9.06-2.85,11.82S73.1,51.12,69.32,57.06C67.68,58.33,66.49,60.33,64.07,60.34Z"/><path class="cls-2" d="M174.9,96.35c-.07-10-5-18-10.86-25.55-1.66-1.26-3.51-2.35-3.89-4.69-1.88-2-2.93-4.71-5.64-5.86-2.42,0-3.56-2-5.27-3.19-3.23-5.82-9.51-7-14.81-9.55C130.57,45.63,128,37.34,130.64,34c2.26-2.89,5-1,7.38-.15C166,44.06,182.55,64.42,189.73,93c.33,1.29.81,2.54,1.21,3.81,1,.69.85,1.52.29,2.39q-.06,12.24-.1,24.46c.69,4-.5,7.51-2.62,10.81a93.86,93.86,0,0,1-17.83,32.72c-6.94,8.3-16.35,13.76-26,18.54-2.39,1.18-4.9,2.11-6.45,4.47-2.71.82-5.44,2.12-8-.27-1-12.08-.67-11.58,9.31-17.43,15.35-9,27.69-21.05,34.14-38.2,1.11-3,2.07-6,1.22-9.18,1-1.13.62-2.65,1.16-3.9,1-6.63,0-13.25-.06-19.87C175.2,99.75,176.05,97.84,174.9,96.35Z"/><path class="cls-3" d="M176.4,100.22a44.14,44.14,0,0,1-.11,22.28c-1.22-1.77-1-3.58-.18-5.41-1.82-3.56-1.18-7.39-1.23-11.14C176.45,104.32,174.55,101.77,176.4,100.22Z"/><path class="cls-4" d="M135.8,92.57c2.52-4.09-1.62-7.16-1.62-10.87C139.38,85.09,139.87,88.36,135.8,92.57Z"/><path class="cls-5" d="M103.11,165.64a19.62,19.62,0,0,0,12.1,0C112.66,169.7,106.72,169.69,103.11,165.64Z"/><path class="cls-6" d="M122.1,122.56c3.27,3.62,4.49,7.24.06,10.91Z"/><path class="cls-7" d="M123.4,92.74a22.84,22.84,0,0,0,12.3-.06C132.09,97.07,127.08,97.09,123.4,92.74Z"/><path class="cls-8" d="M90.93,126.13c-4.28.83-9-1.52-12.94,1.83a1.15,1.15,0,0,1-1.89-.15,4,4,0,0,1,4.1-2.73,18.57,18.57,0,0,1,10.7,0C90.9,125.41,90.91,125.77,90.93,126.13Z"/><path class="cls-9" d="M116.19,164.26c0-3.15.11-6.31.09-9.47,0-1.9.66-3,2.72-2.91C117.36,155.85,119.41,160.65,116.19,164.26Z"/><path class="cls-10" d="M116.76,69.47c-1.08-4,.55-8.26-1.3-12.16C120.32,60.88,118.08,65.22,116.76,69.47Z"/><path class="cls-11" d="M99,152.11c3.08-.57,3.06,1.5,3.07,3.59,0,2.86,0,5.72.07,8.58C98.36,160.94,102.07,155.64,99,152.11Z"/><path class="cls-12" d="M80.13,189.92h8C85.44,195.44,82.78,192.16,80.13,189.92Z"/><path class="cls-12" d="M130.18,189.9l8,.27C135.47,191.82,132.66,195.59,130.18,189.9Z"/><path class="cls-10" d="M102.32,57.38q-.33,6-.64,12.05C100.07,65.32,99.1,61.24,102.32,57.38Z"/><path class="cls-13" d="M90.9,125.06l-10.7,0A9.89,9.89,0,0,1,90.9,125.06Z"/><path class="cls-14" d="M176.4,100.22c-.62,1.88.45,4.21-1.52,5.73q0-4.8,0-9.6C176.66,97.15,176.48,98.7,176.4,100.22Z"/><path class="cls-15" d="M176.11,117.09l.18,5.41c.2,1.24-.08,2.21-1.44,2.59C175.32,122.43,173.65,119.44,176.11,117.09Z"/><path class="cls-16" d="M76.1,127.81,78,128l-.42,6.58C75.09,132.74,76.42,130.09,76.1,127.81Z"/><path class="cls-17" d="M191.23,99.17c-.1-.8-.19-1.59-.29-2.39"/><path class="cls-18" d="M204.62,178.56v2.67c-.6,1.23-.31,2.6-.71,3.88a33,33,0,0,1-16.36,20,20.74,20.74,0,0,1-8,3c-.59-.28-1.24,0-1.84-.16l-.15,0a.34.34,0,0,1,.08.39c-.42.48-1,.25-1.48.29a21,21,0,0,0-4.27.15c-.79,0-1.58,0-2.38,0a4.17,4.17,0,0,0-2.87.16h-.89c-.19-.23-.68-.08-.69-.52-.19-.05-.23.2-.4.18-.47,0-1,.2-1.35-.32,0-.19,0-.36.27-.32-.31-.09-.39.25-.6.34a3.48,3.48,0,0,1-2.32-.2c-11.79-3.64-19.75-11.2-23.53-23a10.46,10.46,0,0,1-.4-3.94c-.08-3.22-.09-6.44,0-9.66a12.88,12.88,0,0,1,.95-5.79c4.24-11,12.14-18,23.41-21.31,1.71-.5,3.53-.2,5.24-.71h2.08a10.38,10.38,0,0,0,3.85,0h2.38a10.73,10.73,0,0,0,3,.36A30.75,30.75,0,0,1,193.06,151a32.2,32.2,0,0,1,10.71,15.8c.56,1.81.36,3.7.85,5.5v1.48a2.29,2.29,0,0,0,0,1.78v1.19A2.29,2.29,0,0,0,204.62,178.56Z"/><path class="cls-19" d="M137,181.23c-.3-.34.06-1-.6-1.19V178a7.52,7.52,0,0,0,0-3.27V172c.65,0,.34-.63.6-.89a1.92,1.92,0,0,1,.23,1.69,20.42,20.42,0,0,0,0,6.71A1.92,1.92,0,0,1,137,181.23Z"/><path class="cls-20" d="M176.13,208.26c-.33.32-1-.06-1.19.57h-3c-.2-.09-.2-.18,0-.28C173.34,208.21,174.7,207.77,176.13,208.26Z"/><path class="cls-20" d="M166.64,208.83c.78-1.06,1.73-.6,2.67-.31-.13.23-.45.1-.6.31Z"/><path class="cls-21" d="M172.27,143.55a5.49,5.49,0,0,1-3.85,0Z"/><path class="cls-22" d="M136.37,174.7a3.93,3.93,0,0,1,0,3.27Z"/><path class="cls-23" d="M168.71,208.83l.6-.31,2.66,0a2.72,2.72,0,0,0,0,.28Z"/><path class="cls-24" d="M204.62,175.59a1.35,1.35,0,0,1,0-1.78Z"/><path class="cls-25" d="M204.62,178.56a1.38,1.38,0,0,1,0-1.78Z"/><path class="cls-26" d="M149,153.09c4.6.79,9.13,1.56,13.66,2.36,8.44,1.49,16.88,3,25.32,4.48a6.5,6.5,0,0,1,3.46,1.64c2.66,2.48,5.34,4.94,8.06,7.35,1.47,1.31,1,2.42-.08,3.68Q186,188.11,172.68,203.66c-3.1,3.62-2.72,4.28-4.9-.84-6-14.2-12.18-28.34-18.28-42.51-.7-1.64-1.4-3.29-2-5C147.11,154.08,147.5,153.17,149,153.09Z"/><path class="cls-20" d="M179.39,207.61a3.1,3.1,0,0,1-1.69.36,1.56,1.56,0,0,1-.44-.07c-.17-.08-.14-.24,0-.23C178,207.72,178.68,207,179.39,207.61Z"/><path class="cls-20" d="M163.3,208l-.12,0-.11-.06c.31-.3.65-.37,1.27-.13Z"/><path class="cls-20" d="M165.06,208.27l-.11,0-.1-.07a.77.77,0,0,1,1.07-.1Z"/><path class="cls-18" d="M169.27,197.08c-5.25-12.26-10.49-24.51-15.76-36.85a1.79,1.79,0,0,1,1.69.65c5.33,4.32,10.65,8.67,16,13a2.23,2.23,0,0,1,1.07,2.23c-.89,7-1.72,14-2.57,21Z"/><path class="cls-18" d="M175.49,178.56c-.38-2.09.52-2.82,2.61-3.08,5.29-.65,10.54-1.57,16.4-2.48l-21.13,24.39-.38-.16,2.43-18c.5.38.14,1,.3,1.42C175.52,180,175.92,179.22,175.49,178.56Z"/><path class="cls-18" d="M185.36,162.84c-3.76,3-7.15,5.69-10.44,8.46-1,.85-1.55.25-2.24-.3-5.47-4.29-10.94-8.58-16.32-13.26Z"/><path class="cls-27" d="M195.17,169.64l-15.79,2.73c-.2-.82.45-1,.82-1.3,2.51-2,5.07-3.95,7.53-6,.94-.79,1.51-.77,2.37.08C191.6,166.6,193.24,167.94,195.17,169.64Z"/><path class="cls-28" d="M175.49,178.56a2.78,2.78,0,0,1,.11,2.66l-.18-1.95Z"/></g></g></svg>