<svg xmlns="http://www.w3.org/2000/svg" viewBox="0 0 220 220"><defs><style>.cls-1{fill:#50af95;}.cls-1,.cls-2{fill-rule:evenodd;}.cls-2{fill:#fff;}.cls-3{fill:#fe060a;}.cls-4{fill:#fe0405;}.cls-5{fill:#fe0709;}.cls-6{fill:#fe3f42;}.cls-7{fill:#fe5c5e;}.cls-8{fill:#fe2528;}.cls-9{fill:#fe2023;}.cls-10{fill:#fe2427;}.cls-11{fill:#fefefe;}.cls-12{fill:#fe070b;}.cls-13{fill:#fe0001;}</style></defs><title>usdttrc20</title><g id="Capa_2" data-name="Capa 2"><g id="_Layer_" data-name="&lt;Layer&gt;"><path class="cls-1" d="M40.25,1.11.16,98a2.07,2.07,0,0,0,.36,2.18L108.86,219.47a1.49,1.49,0,0,0,2.28,0L219.48,100.15a2.09,2.09,0,0,0,.36-2.18L179.75,1.11A1.68,1.68,0,0,0,178.25,0H41.75a1.67,1.67,0,0,0-1.5,1.11Z"/><path class="cls-2" d="M123.91,107.89h0c-.8,0-4.8.35-13.78.35-7.13,0-12.19-.25-13.95-.35h0C68.64,106.47,48,101,48,94.38s20.55-12.09,48.14-13.5v21.55c1.81.15,7,.5,14.08.5a130.59,130.59,0,0,0,13.6-.5V80.88c27.5,1.41,48,6.93,48,13.5s-20.46,12.09-48,13.51Zm0-29.24V59.38h38.37V30H57.81V59.38H96.18V78.65C65,80.32,41.53,87.4,41.53,95.9S65,111.48,96.18,113.15v61.76h27.73V113.15c31.11-1.67,54.52-8.75,54.52-17.25s-23.37-15.58-54.52-17.25Z"/><path class="cls-3" d="M206,166.11v2.67c-.59,1.22-.31,2.6-.7,3.88a33.06,33.06,0,0,1-16.36,20,20.76,20.76,0,0,1-8,3c-.59-.28-1.24,0-1.84-.16a.4.4,0,0,0-.15,0,.37.37,0,0,1,.08.39c-.42.48-1,.25-1.49.28a20.24,20.24,0,0,0-4.26.16c-.79,0-1.59,0-2.38,0a4.2,4.2,0,0,0-2.88.15h-.89c-.19-.22-.67-.08-.68-.52-.19,0-.23.21-.4.19-.47,0-1,.2-1.35-.32,0-.19,0-.37.27-.32-.32-.1-.39.25-.61.33a3.46,3.46,0,0,1-2.31-.19c-11.79-3.65-19.76-11.2-23.53-23a10.14,10.14,0,0,1-.4-3.95c-.09-3.22-.09-6.43,0-9.65a12.87,12.87,0,0,1,1-5.79c4.24-11,12.13-18,23.41-21.31,1.7-.5,3.53-.2,5.24-.72h2.07a10.44,10.44,0,0,0,3.86,0H176a10.39,10.39,0,0,0,3,.37,30.66,30.66,0,0,1,15.36,7.11,32.2,32.2,0,0,1,10.72,15.8c.55,1.82.36,3.7.84,5.5v1.49a2.38,2.38,0,0,0,0,1.78v1.18A2.41,2.41,0,0,0,206,166.11Z"/><path class="cls-4" d="M138.34,168.78c-.3-.35.07-1-.59-1.19v-2.08a7.79,7.79,0,0,0,0-3.26v-2.67c.65,0,.34-.63.59-.89a1.9,1.9,0,0,1,.24,1.68,20.48,20.48,0,0,0,0,6.72A1.93,1.93,0,0,1,138.34,168.78Z"/><path class="cls-5" d="M177.51,195.8c-.33.33-1-.05-1.19.57h-3c-.19-.08-.2-.17,0-.27C174.72,195.76,176.08,195.31,177.51,195.8Z"/><path class="cls-5" d="M168,196.37c.78-1.06,1.74-.59,2.67-.31-.13.24-.44.11-.59.31Z"/><path class="cls-6" d="M173.65,131.09a5.46,5.46,0,0,1-3.86,0Z"/><path class="cls-7" d="M137.75,162.25a3.94,3.94,0,0,1,0,3.26Z"/><path class="cls-8" d="M170.09,196.37c.2-.1.4-.2.59-.31l2.66,0a2.44,2.44,0,0,1,0,.27Z"/><path class="cls-9" d="M206,163.14a1.38,1.38,0,0,1,0-1.78Z"/><path class="cls-10" d="M206,166.11a1.4,1.4,0,0,1,0-1.79Z"/><path class="cls-11" d="M150.33,140.63c4.6.8,9.13,1.56,13.65,2.36,8.45,1.49,16.88,3,25.33,4.48a6.44,6.44,0,0,1,3.46,1.65c2.66,2.47,5.34,4.93,8.06,7.35,1.47,1.31,1,2.42-.08,3.68q-13.37,15.51-26.69,31.06c-3.1,3.61-2.73,4.28-4.9-.84-6-14.2-12.19-28.35-18.28-42.52-.7-1.64-1.4-3.28-2-5C148.49,141.63,148.88,140.71,150.33,140.63Z"/><path class="cls-5" d="M180.77,195.16a3.25,3.25,0,0,1-1.7.36,2,2,0,0,1-.43-.07c-.18-.08-.14-.25,0-.24C179.37,195.26,180.06,194.56,180.77,195.16Z"/><path class="cls-5" d="M164.68,195.51l-.12,0-.11-.07c.3-.29.65-.37,1.27-.12Z"/><path class="cls-5" d="M166.44,195.82l-.11,0-.1-.07a.77.77,0,0,1,1.07-.1Z"/><path class="cls-3" d="M170.64,184.62l-15.76-36.85a1.78,1.78,0,0,1,1.7.66c5.33,4.32,10.64,8.66,16,13a2.22,2.22,0,0,1,1.06,2.23c-.88,7-1.71,14-2.56,21Z"/><path class="cls-3" d="M176.87,166.1c-.38-2.09.52-2.82,2.6-3.07,5.29-.65,10.55-1.58,16.41-2.48l-21.13,24.39-.38-.17,2.43-18c.5.39.14,1,.3,1.42C176.89,167.54,177.3,166.77,176.87,166.1Z"/><path class="cls-3" d="M186.74,150.38c-3.77,3-7.15,5.69-10.44,8.46-1,.86-1.55.25-2.24-.29-5.47-4.29-10.94-8.58-16.32-13.26Z"/><path class="cls-12" d="M196.55,157.19l-15.79,2.73c-.2-.83.44-1,.82-1.3,2.51-2,5.07-4,7.53-6,.94-.79,1.5-.76,2.36.08C193,154.15,194.62,155.49,196.55,157.19Z"/><path class="cls-13" d="M176.87,166.1a2.79,2.79,0,0,1,.11,2.66l-.18-1.95Z"/></g></g></svg>