<svg xmlns="http://www.w3.org/2000/svg" viewBox="0 0 200 200"><defs><style>.cls-1{fill:#9411dd;}</style></defs><title>Zelle</title><g id="Capa_2" data-name="Capa 2"><g id="Capa_1-2" data-name="Capa 1"><path class="cls-1" d="M199.94,99.24c0,11.76,0,23.52,0,35.27q0,7.58,0,15.14c0,2.11,0,4.22-.06,6.32a36.63,36.63,0,0,1-1.07,7.65,52.58,52.58,0,0,1-1.61,5.68,27.59,27.59,0,0,1-1.85,4.3c-.57,1-1.1,2.08-1.67,3.1a43.79,43.79,0,0,1-3.13,4.79,45.63,45.63,0,0,1-5.55,6.16,43.94,43.94,0,0,1-7.25,5.43,57.28,57.28,0,0,1-9.09,4.4,34.86,34.86,0,0,1-3.77,1,56.6,56.6,0,0,1-6.2,1.08,49.57,49.57,0,0,1-6.67.42q-52.82,0-105.62,0a44,44,0,0,1-9.08-1,51.76,51.76,0,0,1-6.17-1.61,46.45,46.45,0,0,1-7.68-3.55,52,52,0,0,1-6.37-4.21,39.56,39.56,0,0,1-4.52-4.26c-.77-.81-1.48-1.67-2.24-2.48a23,23,0,0,1-2.2-3,41.56,41.56,0,0,1-4.61-8.33,58.68,58.68,0,0,1-2.51-7.7,37.47,37.47,0,0,1-.91-8.43C-.13,120.76.08,86.17.05,51.57c0-3.06,0-6.12.13-9.19a40.91,40.91,0,0,1,1-6.22,53,53,0,0,1,2.93-8.87A25.71,25.71,0,0,1,6,23.65a38.67,38.67,0,0,1,3.55-5.31,61.82,61.82,0,0,1,4.63-5.08,44.49,44.49,0,0,1,8.64-6.57,49.65,49.65,0,0,1,6-3,31,31,0,0,1,5.93-2.1A54.14,54.14,0,0,1,41.59.45C42.83.36,44.06.23,45.3.22,79.93-.2,114.57.13,149.2,0c2.89,0,5.79.1,8.68.37a56.42,56.42,0,0,1,7.52,1.24,37.09,37.09,0,0,1,4.42,1.5,41,41,0,0,1,7.24,3.43,48.24,48.24,0,0,1,8.06,6.1,46,46,0,0,1,8.26,10,48.25,48.25,0,0,1,4.11,8.5,28.77,28.77,0,0,1,1.51,6,8.85,8.85,0,0,0,.37,1.68,12.07,12.07,0,0,1,.52,3.67c.19,9.78.07,19.55.09,29.33q0,13.69,0,27.4Z"/><path d="M108.07,69.46a2.91,2.91,0,0,0-1.2-.15q-22.68,0-45.36,0c-1.2,0-2.4-.08-3.59-.13-2.62-.11-3.78-1.57-3.86-3.64C53.87,60.4,54,55.25,54,50.09a4.05,4.05,0,0,1,2-3.73,3.35,3.35,0,0,1,1.31-.48c1-.08,2.05-.18,3.07-.18q11.12,0,22.22,0c1.43,0,2.87.15,4.31.09.89,0,.89,0,.86-.85-.17-5,0-10,0-15.08A11.32,11.32,0,0,1,88,28a2.33,2.33,0,0,1,2.59-2.22h20.24a4.86,4.86,0,0,1,2.14.56c.76.36.84,1.08,1,1.73a6.26,6.26,0,0,1,0,1.3c0,4.9,0,9.81,0,14.72,0,1.41.23,1.59,1.73,1.59q9.15,0,18.31,0c3.08,0,6.16.07,9.25.13a15.36,15.36,0,0,1,2,.22,3.49,3.49,0,0,1,3,2.8A7.82,7.82,0,0,1,148.5,51c0,4,0,8-.07,12a4.43,4.43,0,0,1-1.16,2.91c-1.9,2.18-3.82,4.34-5.72,6.52-2.33,2.69-4.63,5.41-7,8.1-2,2.33-4.08,4.64-6.09,7-2.32,2.7-4.74,5.33-7,8.07-.94,1.13-2,2.18-3,3.31-2.07,2.49-4.33,4.84-6.33,7.37-.87,1.1-1.89,2.11-2.83,3.17-2,2.26-4.06,4.48-6,6.81-2.29,2.8-4.73,5.5-7.07,8.26-1.35,1.59-2.79,3.12-4.18,4.68a1.39,1.39,0,0,0-.33.46c-.14.42,0,.67.5.69s.82,0,1.23,0c4.18,0,8.36,0,12.55,0,12.13.1,24.27,0,36.41.05a18,18,0,0,1,2.54.22,3.84,3.84,0,0,1,3.21,3.09,14.45,14.45,0,0,1,.21,2.86c0,4.35-.05,8.7-.05,13.05a4.43,4.43,0,0,1-2.76,4.21,2.22,2.22,0,0,1-1,.23c-.75,0-1.5.06-2.26.06H124.54c-1.47,0-3,0-4.42.09s-3.21-.15-4.82-.11c-1.19,0-1.2,0-1.24,1.07-.21,5-.09,10.11-.11,15.16a7.68,7.68,0,0,1-.31,2.19,2,2,0,0,1-1.73,1.52,13.73,13.73,0,0,1-2.14.19c-4,0-8.08,0-12.13,0-2.06,0-4.11,0-6.17-.06a4.74,4.74,0,0,1-2-.4,2.74,2.74,0,0,1-1.7-2.65c0-2.62,0-5.24,0-7.86,0-2.19,0-4.38,0-6.57a11.25,11.25,0,0,0,.1-1.93c-.06-.35-.19-.5-.55-.52-.92-.05-1.84-.18-2.76-.14-3.42.15-6.85.14-10.26.05-4.7-.13-9.39,0-14.09-.1-1.57,0-3.15-.06-4.73,0-1.41,0-3.4-1.26-3.6-2.68a19.35,19.35,0,0,1-.3-2.38c0-3.89,0-7.78-.09-11.66a7,7,0,0,1,2-5c1.63-1.86,3.3-3.69,4.88-5.59s3.11-3.51,4.65-5.28c2.29-2.64,4.55-5.31,6.86-7.94,2.16-2.47,4.26-5,6.49-7.38,1.43-1.56,2.78-3.19,4.18-4.79,2.48-2.82,5-5.6,7.44-8.47,2-2.38,4.16-4.64,6.07-7.08a36.76,36.76,0,0,1,2.72-3c1.19-1.24,2.2-2.59,3.37-3.84,1.38-1.49,2.58-3.1,3.92-4.62,1-1.18,2.2-2.27,3.21-3.48A5.68,5.68,0,0,0,108.07,69.46Z"/></g></g></svg>